<svg width="20" height="25" viewBox="0 0 20 25" fill="none" xmlns="http://www.w3.org/2000/svg">
<path d="M10 17.5C12.125 15.5833 13.4896 14.2344 14.0938 13.4531C14.6979 12.6719 15 11.8958 15 11.125C15 10.375 14.7292 9.72917 14.1875 9.1875C13.6458 8.64583 13 8.375 12.25 8.375C11.8125 8.375 11.3906 8.46354 10.9844 8.64062C10.5781 8.81771 10.25 9.0625 10 9.375C9.75 9.0625 9.42708 8.81771 9.03125 8.64062C8.63542 8.46354 8.20833 8.375 7.75 8.375C7 8.375 6.35417 8.64583 5.8125 9.1875C5.27083 9.72917 5 10.375 5 11.125C5 11.5208 5.05208 11.8854 5.15625 12.2188C5.26042 12.5521 5.48958 12.9427 5.84375 13.3906C6.19792 13.8385 6.70312 14.3854 7.35938 15.0312C8.01562 15.6771 8.89583 16.5 10 17.5ZM10 25C7.10417 24.2708 4.71354 22.6094 2.82812 20.0156C0.942708 17.4219 0 14.5417 0 11.375V3.75L10 0L20 3.75V11.375C20 14.5417 19.0573 17.4219 17.1719 20.0156C15.2865 22.6094 12.8958 24.2708 10 25ZM10 22.375C12.1667 21.6875 13.9583 20.3125 15.375 18.25C16.7917 16.1875 17.5 13.8958 17.5 11.375V5.46875L10 2.65625L2.5 5.46875V11.375C2.5 13.8958 3.20833 16.1875 4.625 18.25C6.04167 20.3125 7.83333 21.6875 10 22.375Z" fill="white"/>
</svg>
