<svg width="204" height="56" viewBox="0 0 204 56" fill="none" xmlns="http://www.w3.org/2000/svg">
<g clip-path="url(#clip0_459_1217)">
<path d="M165.071 31.108V3.83027H154.497V31.5218C154.497 35.3904 153.582 38.291 151.749 40.2237C149.919 42.1564 147.377 43.1232 144.128 43.1232C140.879 43.1232 138.338 42.1223 136.505 40.1205C134.676 38.1155 133.76 35.134 133.76 31.1772V3.83027H123.187V31.4527C123.187 38.5888 125.04 43.9529 128.747 47.5428C132.455 51.1358 137.536 52.9292 143.99 52.9292C147.195 52.9292 150.101 52.4814 152.711 51.5837C155.321 50.6859 157.541 49.3287 159.373 47.5087C161.202 45.6909 162.61 43.4232 163.594 40.7076C164.579 37.99 165.071 34.7905 165.071 31.108ZM204 37.8762V37.7368C204 35.618 203.666 33.8023 203.004 32.2813C202.337 30.7623 201.342 29.4391 200.037 28.3106C198.735 27.1842 197.119 26.2173 195.221 25.411C193.32 24.6037 191.147 23.8804 188.709 23.2358C186.649 22.6827 184.943 22.2009 183.583 21.7871C182.231 21.3733 181.169 20.9341 180.378 20.4746C179.601 20.0129 179.062 19.496 178.764 18.9195C178.469 18.3451 178.318 17.6654 178.318 16.8815V16.7453C178.318 15.5466 178.832 14.5457 179.864 13.7394C180.893 12.9353 182.438 12.5321 184.498 12.5321C186.558 12.5321 188.618 12.9576 190.677 13.8085C192.738 14.6605 194.844 15.8221 196.993 17.2963L202.487 9.28689C200.015 7.3074 197.302 5.78529 194.349 4.72907C191.399 3.66966 188.158 3.13888 184.633 3.13888C182.162 3.13888 179.896 3.4867 177.848 4.17596C175.798 4.86522 174.026 5.85549 172.55 7.14679C171.074 8.43383 169.928 9.96657 169.105 11.7376C168.291 13.5118 167.88 15.503 167.88 17.7101V17.8494C167.88 20.2437 168.258 22.2466 169.014 23.8591C169.769 25.4695 170.844 26.8151 172.218 27.8968C173.59 28.9775 175.275 29.8869 177.243 30.6241C179.223 31.3623 181.418 32.0292 183.856 32.6259C185.87 33.1322 187.516 33.6172 188.778 34.0778C190.037 34.5373 191.02 34.9979 191.742 35.4606C192.45 35.9201 192.931 36.4136 193.183 36.9433C193.435 37.4741 193.561 38.0836 193.561 38.776V38.9122C193.561 40.3386 192.953 41.4565 191.742 42.2606C190.528 43.0669 188.822 43.47 186.627 43.47C183.878 43.47 181.35 42.9413 179.039 41.8819C176.728 40.8225 174.472 39.3961 172.273 37.5996L166.027 45.1272C168.91 47.7523 172.116 49.6956 175.638 50.9614C179.163 52.2304 182.758 52.8632 186.42 52.8632C189.03 52.8632 191.41 52.5271 193.551 51.8602C195.691 51.1933 197.543 50.2275 199.089 48.9596C200.635 47.6949 201.834 46.1292 202.705 44.2656C203.563 42.3999 204 40.2694 204 37.8783V37.8762ZM53.9766 53.7812C41.6842 53.7812 31.4085 45.0729 28.9232 33.4545C28.5467 31.6973 28.3447 29.8721 28.3447 28.0011C28.3447 26.5885 28.461 25.2068 28.6768 23.8581H10.5739V13.4299H32.8331C33.9224 11.8312 35.1884 10.3623 36.5992 9.05182V3.83027H0V52.1697H10.5739V33.4545H26.6663C29.1908 46.3079 40.4584 56 53.9755 56V53.7812H53.9766ZM122.09 44.3667L115.363 37.5315C113.486 39.2781 111.598 40.6598 109.697 41.6745C107.798 42.6871 105.475 43.1934 102.727 43.1934C100.666 43.1934 98.7807 42.7903 97.0642 41.984C95.3466 41.1778 93.8808 40.0843 92.6678 38.7048C91.4557 37.322 90.505 35.7095 89.8196 33.8693C89.1311 32.0281 88.7885 30.0731 88.7885 28.0011V27.8628C88.7885 25.7908 89.1311 23.8443 89.8196 22.0254C90.505 20.2065 91.4674 18.6078 92.7027 17.225C93.94 15.8455 95.4154 14.7637 97.1329 13.9798C98.8473 13.1991 100.713 12.8066 102.727 12.8066C105.155 12.8066 107.339 13.2905 109.286 14.2585C111.232 15.2232 113.143 16.5581 115.02 18.2621L121.747 10.459C120.65 9.35283 119.46 8.34022 118.177 7.42015C116.897 6.50008 115.497 5.71615 113.989 5.0737C112.479 4.42805 110.795 3.92174 108.942 3.55159C107.087 3.18462 105.042 3.00167 102.795 3.00167C99.0874 3.00167 95.6999 3.65476 92.6339 4.96733C89.5669 6.2799 86.9345 8.07643 84.7368 10.3537C82.6967 12.4726 81.067 14.9084 79.8571 17.6611C75.7673 7.31378 65.7223 0 53.9766 0V2.222C65.7286 2.222 75.6309 10.1729 78.6578 21.016C79.2775 23.238 79.6096 25.5791 79.6096 28.0011C79.6096 30.423 79.2691 32.8184 78.6366 35.0628C78.8989 36.019 79.2141 36.9561 79.5874 37.8762C80.8237 40.914 82.5402 43.5498 84.7389 45.7824C86.9366 48.015 89.5436 49.7765 92.5673 51.0667C95.5888 52.3537 98.8632 52.9994 102.386 52.9994C104.719 52.9994 106.826 52.8047 108.704 52.4123C110.581 52.0198 112.309 51.4443 113.888 50.6859C115.466 49.9265 116.922 49.017 118.249 47.9576C119.576 46.8982 120.856 45.7026 122.092 44.3667H122.09Z" fill="#7C5CFF"/>
<path fill-rule="evenodd" clip-rule="evenodd" d="M53.9974 13L56.9983 25.0034L69 27.9992L56.9983 30.9983L53.9974 43L50.9966 30.9983L39 27.9992L50.9966 25.0034L53.9974 13Z" fill="#54555C"/>
</g>
<defs>
<clipPath id="clip0_459_1217">
<rect width="204" height="56" fill="white"/>
</clipPath>
</defs>
</svg>
