<svg width="24" height="24" viewBox="0 0 24 24" fill="none" xmlns="http://www.w3.org/2000/svg">
<g clip-path="url(#clip0_440_888)">
<path d="M7.62524 5.64697H11.8965C12.1039 5.64697 12.2715 5.47897 12.2715 5.27197C12.2715 5.06497 12.1039 4.89697 11.8965 4.89697H7.62524C7.41787 4.89697 7.25024 5.06497 7.25024 5.27197C7.25024 5.47897 7.41787 5.64697 7.62524 5.64697Z" fill="#7C5CFF"/>
<path d="M7.62524 8.19531H10.9324C11.1397 8.19531 11.3074 8.02731 11.3074 7.82031C11.3074 7.61331 11.1397 7.44531 10.9324 7.44531H7.62524C7.41787 7.44531 7.25024 7.61331 7.25024 7.82031C7.25024 8.02731 7.41787 8.19531 7.62524 8.19531Z" fill="#7C5CFF"/>
<path d="M7.62524 10.7441H10.9324C11.1397 10.7441 11.3074 10.5761 11.3074 10.3691C11.3074 10.1621 11.1397 9.99414 10.9324 9.99414H7.62524C7.41787 9.99414 7.25024 10.1621 7.25024 10.3691C7.25024 10.5761 7.41787 10.7441 7.62524 10.7441Z" fill="#7C5CFF"/>
<path d="M7.62524 13.2925H12.0341C12.2415 13.2925 12.4091 13.1245 12.4091 12.9175C12.4091 12.7105 12.2415 12.5425 12.0341 12.5425H7.62524C7.41787 12.5425 7.25024 12.7105 7.25024 12.9175C7.25024 13.1245 7.41787 13.2925 7.62524 13.2925Z" fill="#7C5CFF"/>
<path d="M15.1346 15.0913H7.62524C7.41787 15.0913 7.25024 15.2593 7.25024 15.4663C7.25024 15.6733 7.41787 15.8413 7.62524 15.8413H15.1346C15.342 15.8413 15.5096 15.6733 15.5096 15.4663C15.5096 15.2593 15.342 15.0913 15.1346 15.0913Z" fill="#7C5CFF"/>
<path d="M21.0525 4.39143C20.1112 3.66768 18.9862 3.27393 17.7975 3.25143V3.24768C17.67 2.15643 16.74 1.30518 15.615 1.30518H2.95125C1.73625 1.30518 0.75 2.29143 0.75 3.50643V5.27268C0.75 5.47893 0.91875 5.64768 1.125 5.64768H4.60875V20.4977C4.60875 21.0827 4.84125 21.6339 5.2575 22.0502C5.67 22.4664 6.22125 22.6952 6.81 22.6952H19.2638C19.8487 22.6952 20.3962 22.4664 20.8125 22.0502C21.2288 21.6339 21.4575 21.0827 21.4575 20.4977V18.8139C21.4575 18.6039 21.2925 18.4389 21.0825 18.4389H17.8125V14.3889C18.99 14.3627 20.1075 13.9727 21.0525 13.2527C22.4475 12.1914 23.25 10.5752 23.25 8.82018C23.25 7.06518 22.4475 5.45268 21.0525 4.39143ZM19.5075 10.6464C19.4325 10.7214 19.335 10.7589 19.2413 10.7589C19.1438 10.7589 19.05 10.7214 18.975 10.6464L17.415 9.08643C17.3438 9.01518 17.3025 8.92143 17.3025 8.82018V5.65143C17.3025 5.44143 17.4713 5.27643 17.6775 5.27643C17.8875 5.27643 18.0525 5.44143 18.0525 5.65143V8.66643L19.5075 10.1177C19.6537 10.2639 19.6537 10.5002 19.5075 10.6464ZM8.6325 18.4389C8.4225 18.4389 8.2575 18.6039 8.2575 18.8139V20.4977C8.2575 21.2964 7.60875 21.9452 6.81 21.9452C6.42375 21.9452 6.06 21.7952 5.78625 21.5214C5.5125 21.2439 5.35875 20.8802 5.35875 20.4977V3.50643C5.35875 3.43518 5.355 3.36768 5.3475 3.30018C5.34375 3.25518 5.34 3.21393 5.3325 3.17268C5.3175 3.07893 5.29875 2.98518 5.2725 2.89518C5.25375 2.83518 5.235 2.77518 5.2125 2.71893C5.19 2.65893 5.16375 2.59893 5.13375 2.53893C5.11125 2.48643 5.08125 2.43393 5.05125 2.38518C5.025 2.34018 4.99875 2.29518 4.965 2.25393C4.94625 2.22018 4.92 2.18643 4.89375 2.15268C4.8675 2.11893 4.84125 2.08893 4.815 2.05518H15.615C16.3387 2.05518 16.9387 2.58768 17.0475 3.28518C16.9125 3.30018 16.7812 3.31893 16.65 3.34518C16.5188 3.36768 16.3875 3.39768 16.26 3.43143C16.1737 3.45393 16.0875 3.48018 16.005 3.50643C15.765 3.58143 15.5287 3.67143 15.3 3.78393C15.27 3.79518 15.2437 3.81018 15.2137 3.82518C15.2025 3.82893 15.195 3.83268 15.1838 3.84393C15.1463 3.85893 15.105 3.87768 15.0675 3.90018C15.0075 3.93018 14.9513 3.96018 14.895 3.99768C14.8088 4.04268 14.73 4.09518 14.6475 4.14768C14.5313 4.22268 14.415 4.30518 14.3025 4.39143C12.9075 5.45268 12.105 7.06518 12.105 8.82018C12.105 10.5752 12.9075 12.1914 14.3025 13.2527C14.385 13.3127 14.4675 13.3727 14.55 13.4289C14.5837 13.4552 14.6213 13.4777 14.655 13.5002C14.745 13.5602 14.8387 13.6164 14.9325 13.6689C15.1425 13.7852 15.3562 13.8902 15.5812 13.9802C15.7087 14.0327 15.84 14.0814 15.975 14.1227C16.0312 14.1452 16.0912 14.1602 16.1512 14.1789C16.4475 14.2614 16.7512 14.3214 17.0625 14.3589V18.4389H8.6325Z" fill="#7C5CFF"/>
</g>
<defs>
<clipPath id="clip0_440_888">
<rect width="24" height="24" fill="white"/>
</clipPath>
</defs>
</svg>
