<svg width="20" height="20" viewBox="0 0 20 20" fill="none" xmlns="http://www.w3.org/2000/svg">
<path d="M10.0046 12.0049C8.35041 12.0049 7.00464 10.8832 7.00464 9.50488C7.00464 8.12653 8.35041 7.00488 10.0046 7.00488C11.6587 7.00488 13.0046 8.12653 13.0046 9.50488C13.0046 10.8832 11.6587 12.0049 10.0046 12.0049ZM10.0046 7.71917C8.82314 7.71917 7.86178 8.5203 7.86178 9.50488C7.86178 10.4895 8.82314 11.2906 10.0046 11.2906C11.1861 11.2906 12.1475 10.4895 12.1475 9.50488C12.1475 8.5203 11.1861 7.71917 10.0046 7.71917Z" fill="#7C5CFF"/>
<path d="M13.1751 19.0049H6.37396C6.17628 19.0049 6.01601 18.8434 6.01601 18.6438V17.1263C6.01601 16.6816 5.65735 16.3198 5.21655 16.3198C4.78781 16.3198 4.37742 16.1354 4.0906 15.8141L1.98866 13.4595C1.3736 12.7701 1.39947 11.715 2.04774 11.0576C2.37948 10.7208 2.81539 10.5378 3.27961 10.5378H3.28066C3.74453 10.5378 4.18026 10.7201 4.50781 11.0516L5.92512 12.4865C6.16335 12.7278 6.49351 12.866 6.83084 12.866H12.7182C13.0604 12.866 13.3824 12.7313 13.6243 12.4865L15.0414 11.0516C15.369 10.7201 15.8045 10.5378 16.2684 10.5378H16.2698C16.7337 10.5378 17.1696 10.7208 17.4968 11.053C18.1494 11.715 18.1756 12.7701 17.5604 13.4595L15.4585 15.8141C15.1718 16.1354 14.7614 16.3198 14.3325 16.3198C13.8917 16.3198 13.5331 16.6816 13.5331 17.1263V18.6438C13.5331 18.8434 13.373 19.0049 13.1751 19.0049ZM6.73192 18.2827H12.8171V17.1263C12.8171 16.2835 13.4971 15.5976 14.3325 15.5976C14.5587 15.5976 14.7754 15.5006 14.9264 15.331L17.0284 12.9764C17.3891 12.5719 17.3741 11.9526 16.9938 11.5668C16.7973 11.3676 16.5414 11.26 16.2691 11.26H16.2684C15.9964 11.26 15.7406 11.3669 15.5483 11.5616L14.1312 12.9965C13.7536 13.378 13.252 13.5882 12.7182 13.5882H6.83084C6.30475 13.5882 5.78966 13.3724 5.41808 12.9965L4.00059 11.5616C3.8085 11.3669 3.55279 11.26 3.28066 11.26H3.27996C3.00765 11.26 2.75194 11.3672 2.55985 11.5623C2.17498 11.9526 2.15978 12.5719 2.5207 12.9764L4.62246 15.331C4.77383 15.5003 4.99038 15.5976 5.21655 15.5976C6.05219 15.5976 6.73192 16.2835 6.73192 17.1263V18.2827ZM4.22623 9.9771H1.36259C1.16491 9.9771 1.00464 9.81559 1.00464 9.61599V6.36599C1.00464 6.1664 1.16491 6.00488 1.36259 6.00488H4.22623C4.42391 6.00488 4.58419 6.1664 4.58419 6.36599V9.61599C4.58419 9.81559 4.42391 9.9771 4.22623 9.9771ZM1.72055 9.25488H3.86828V6.72711H1.72055V9.25488Z" fill="#7C5CFF"/>
<path d="M3.11133 8.06857H2.35495C2.16149 8.06857 2.00464 7.90458 2.00464 7.70192C2.00464 7.49927 2.16149 7.33528 2.35495 7.33528H3.11133C3.30478 7.33528 3.46164 7.49927 3.46164 7.70192C3.46164 7.90458 3.30478 8.06857 3.11133 8.06857ZM3.11133 9.00488H2.35495C2.16149 9.00488 2.00464 8.84089 2.00464 8.63824C2.00464 8.43558 2.16149 8.27159 2.35495 8.27159H3.11133C3.30478 8.27159 3.46164 8.43558 3.46164 8.63824C3.46164 8.84089 3.30478 9.00488 3.11133 9.00488ZM2.76068 5.57365C2.73091 5.57365 2.70081 5.56971 2.67088 5.56112C2.4858 5.5092 2.37428 5.3137 2.42149 5.11928C2.44287 5.03156 2.98424 2.9706 6.55489 2.9706C6.74835 2.9706 6.9052 3.13459 6.9052 3.33725C6.9052 3.53991 6.74835 3.70389 6.55489 3.70389C3.56615 3.70389 3.11697 5.23923 3.09935 5.3044C3.05574 5.46624 2.91428 5.57365 2.76068 5.57365ZM16.654 5.57616C16.499 5.57616 16.3574 5.46767 16.3156 5.30368C16.2955 5.22956 15.8401 3.70389 12.8604 3.70389C12.6668 3.70389 12.5101 3.53991 12.5101 3.33725C12.5101 3.13459 12.6668 2.9706 12.8604 2.9706C16.4309 2.9706 16.9725 5.03156 16.9937 5.11928C17.0416 5.31549 16.928 5.51493 16.7405 5.5647C16.7118 5.57258 16.6827 5.57616 16.654 5.57616ZM9.70767 5.23278C8.5938 5.23278 7.68775 4.2843 7.68775 3.11883C7.68775 1.95337 8.5938 1.00488 9.70767 1.00488C10.8212 1.00488 11.7274 1.95337 11.7274 3.11883C11.7274 4.2843 10.8212 5.23278 9.70767 5.23278ZM9.70767 1.73818C8.9802 1.73818 8.38837 2.35761 8.38837 3.11883C8.38837 3.88006 8.9802 4.49949 9.70767 4.49949C10.435 4.49949 11.0268 3.88006 11.0268 3.11883C11.0268 2.35761 10.435 1.73818 9.70767 1.73818Z" fill="#7C5CFF"/>
<path d="M9.37101 3.93539C9.29813 3.93539 9.22454 3.91412 9.16044 3.86946C8.99481 3.7539 8.95488 3.52738 9.07144 3.36361L9.35579 2.9634V2.36787C9.35579 2.16724 9.51999 2.00488 9.72251 2.00488C9.92503 2.00488 10.0892 2.16724 10.0892 2.36787V3.07825C10.0892 3.15305 10.0659 3.22607 10.0224 3.28704L9.6713 3.78119C9.59985 3.88186 9.48633 3.93539 9.37101 3.93539ZM17.8751 10.0048C17.7527 10.0048 17.6302 9.96655 17.5256 9.88998L16.997 9.50076L16.4684 9.88998C16.2611 10.0417 15.9821 10.0435 15.7744 9.89352C15.566 9.74393 15.4811 9.48091 15.5631 9.2395L15.7737 8.62093L15.2365 8.24341C15.0266 8.09594 14.9389 7.83363 15.0188 7.59116C15.0983 7.34834 15.311 7.17748 15.5825 7.1906L16.241 7.19804L16.438 6.57522C16.5146 6.33204 16.7395 6.16863 16.997 6.16863C17.2545 6.16863 17.4794 6.33204 17.5561 6.57522L17.753 7.19804L18.412 7.1906C18.6637 7.1945 18.8958 7.3487 18.9757 7.59116C19.0552 7.83363 18.9674 8.09594 18.7576 8.24341L18.2204 8.62093L18.4306 9.23915C18.513 9.48091 18.4281 9.74393 18.2197 9.89352C18.1165 9.96796 17.9958 10.0048 17.8751 10.0048ZM16.997 8.68545C17.074 8.68545 17.151 8.7092 17.2158 8.75705L17.5851 9.02894L17.4382 8.59718C17.3863 8.44546 17.4415 8.27815 17.5733 8.18527L17.9482 7.92189L17.4884 7.92686H17.4844C17.3244 7.92686 17.1825 7.8237 17.1346 7.67234L16.997 7.23774L16.8595 7.67234C16.8115 7.8237 16.6697 7.92686 16.5096 7.92686H16.5057L16.0459 7.92189L16.4208 8.18527C16.5526 8.27815 16.6078 8.44546 16.5558 8.59718L16.409 9.02894L16.7782 8.75705C16.843 8.7092 16.92 8.68545 16.997 8.68545Z" fill="#7C5CFF"/>
</svg>
