<svg width="25" height="25" viewBox="0 0 25 25" fill="none" xmlns="http://www.w3.org/2000/svg">
<path d="M6.875 18.125L15.625 15.625L18.125 6.875L9.375 9.375L6.875 18.125ZM12.5 14.375C11.9792 14.375 11.5365 14.1927 11.1719 13.8281C10.8073 13.4635 10.625 13.0208 10.625 12.5C10.625 11.9792 10.8073 11.5365 11.1719 11.1719C11.5365 10.8073 11.9792 10.625 12.5 10.625C13.0208 10.625 13.4635 10.8073 13.8281 11.1719C14.1927 11.5365 14.375 11.9792 14.375 12.5C14.375 13.0208 14.1927 13.4635 13.8281 13.8281C13.4635 14.1927 13.0208 14.375 12.5 14.375ZM12.5 25C10.7708 25 9.14583 24.6719 7.625 24.0156C6.10417 23.3594 4.78125 22.4688 3.65625 21.3438C2.53125 20.2188 1.64062 18.8958 0.984375 17.375C0.328125 15.8542 0 14.2292 0 12.5C0 10.7708 0.328125 9.14583 0.984375 7.625C1.64062 6.10417 2.53125 4.78125 3.65625 3.65625C4.78125 2.53125 6.10417 1.64062 7.625 0.984375C9.14583 0.328125 10.7708 0 12.5 0C14.2292 0 15.8542 0.328125 17.375 0.984375C18.8958 1.64062 20.2188 2.53125 21.3438 3.65625C22.4688 4.78125 23.3594 6.10417 24.0156 7.625C24.6719 9.14583 25 10.7708 25 12.5C25 14.2292 24.6719 15.8542 24.0156 17.375C23.3594 18.8958 22.4688 20.2188 21.3438 21.3438C20.2188 22.4688 18.8958 23.3594 17.375 24.0156C15.8542 24.6719 14.2292 25 12.5 25ZM12.5 22.5C15.2708 22.5 17.6302 21.526 19.5781 19.5781C21.526 17.6302 22.5 15.2708 22.5 12.5C22.5 9.72917 21.526 7.36979 19.5781 5.42188C17.6302 3.47396 15.2708 2.5 12.5 2.5C9.72917 2.5 7.36979 3.47396 5.42188 5.42188C3.47396 7.36979 2.5 9.72917 2.5 12.5C2.5 15.2708 3.47396 17.6302 5.42188 19.5781C7.36979 21.526 9.72917 22.5 12.5 22.5Z" fill="#7C5CFF"/>
</svg>
