<svg width="24" height="24" viewBox="0 0 24 24" fill="none" xmlns="http://www.w3.org/2000/svg">
<path d="M10.3672 14.2344C10.3576 14.2589 10.298 14.2569 10.1882 14.2282C10.0783 14.1996 9.92795 14.1525 9.73698 14.0871L9.45052 13.9766C9.03038 13.8129 8.61502 13.6124 8.20443 13.375C8.13759 13.3341 7.94184 13.2052 7.61719 12.9883C7.29253 12.7714 7.11111 12.6548 7.07292 12.6384C6.43316 13.4814 5.7934 14.2221 5.15365 14.8605C4.38021 15.638 3.87891 16.0882 3.64974 16.2109C3.61155 16.2273 3.51845 16.2437 3.37044 16.26C3.22244 16.2764 3.13411 16.2764 3.10547 16.26C3.16276 16.2273 3.55425 15.8508 4.27995 15.1306C4.48047 14.9342 4.88867 14.4635 5.50456 13.7188C6.12044 12.974 6.49523 12.4911 6.62891 12.2701C6.79123 12.0246 7.03472 11.6215 7.35938 11.0608C7.68403 10.5002 7.8559 10.183 7.875 10.1094C7.79861 10.1012 7.27344 10.2362 6.29948 10.5145C6.22309 10.5309 6.0918 10.5616 5.9056 10.6066C5.7194 10.6516 5.55469 10.6905 5.41146 10.7232C5.26823 10.756 5.18707 10.7764 5.16797 10.7846C5.14887 10.801 5.13932 10.8439 5.13932 10.9135C5.13932 10.9831 5.13455 11.0219 5.125 11.0301C5.07726 11.112 4.92925 11.1734 4.68099 11.2143C4.46137 11.2716 4.23698 11.2716 4.00781 11.2143C3.83594 11.1815 3.70226 11.0956 3.60677 10.9565C3.56858 10.9074 3.5447 10.8132 3.53516 10.6741C3.59245 10.6577 3.70942 10.6373 3.88607 10.6127C4.06272 10.5882 4.20356 10.5636 4.30859 10.5391C4.86241 10.4081 5.36372 10.2772 5.8125 10.1462C6.76736 9.85975 7.25434 9.71652 7.27344 9.71652C7.36892 9.70015 7.57422 9.62035 7.88932 9.47712C8.20443 9.33389 8.4145 9.24591 8.51953 9.21317C8.60547 9.18862 8.70812 9.15588 8.82747 9.11495C8.94683 9.07403 9.01606 9.05153 9.03516 9.04743C9.05425 9.04334 9.0829 9.04539 9.12109 9.05357C9.14019 9.15179 9.13542 9.28683 9.10677 9.4587C9.10677 9.47507 9.04709 9.58557 8.92773 9.79018C8.80838 9.99479 8.68186 10.2137 8.54818 10.447C8.4145 10.6802 8.33333 10.8173 8.30469 10.8583C8.06597 11.2675 7.69835 11.8036 7.20182 12.4665L8.11849 12.8103C8.23307 12.8594 8.58876 12.9903 9.18555 13.2031C9.78234 13.4159 10.1046 13.5305 10.1523 13.5469C10.1905 13.5551 10.2407 13.6594 10.3027 13.8599C10.3648 14.0605 10.3863 14.1853 10.3672 14.2344ZM7.43099 8.26786C7.45964 8.39062 7.44054 8.50521 7.3737 8.61161C7.25911 8.79985 7.0204 8.95536 6.65755 9.07812C6.37109 9.17634 6.08464 9.22545 5.79818 9.22545C5.54991 9.20089 5.31597 9.09449 5.09635 8.90625C4.96267 8.78348 4.87674 8.6157 4.83854 8.4029L4.85286 8.36607C4.88151 8.39062 4.97461 8.41109 5.13216 8.42746C5.28971 8.44382 5.41623 8.44382 5.51172 8.42746C5.6072 8.41109 5.88411 8.34561 6.34245 8.23103C6.6862 8.13281 6.94878 8.07552 7.13021 8.05915C7.29253 8.05915 7.3928 8.12872 7.43099 8.26786ZM17.4284 9.85156L18.3307 12.6384L16.3398 12.1228L17.4284 9.85156ZM1.55859 19.673L11.4987 16.8248V4.15513L1.55859 7.01562V19.673ZM19.3333 15.7812L20.7943 16.1618L18.2018 8.09598L16.7695 7.7154L13.6758 14.2958L15.1367 14.6763L15.7812 13.3259L18.8034 14.1239L19.3333 15.7812ZM12.1289 3.97098L20.3359 6.22991V1.56473L12.1289 3.97098ZM16.5833 20.2132L18.8464 20.3728L18.0729 22.3371L17.5 21.5268C16.2587 22.2061 14.941 22.6481 13.5469 22.8527C12.9931 22.9509 12.5586 23 12.2435 23H11.0404C10.286 23 9.33355 22.8404 8.18294 22.5212C7.03234 22.202 6.15625 21.8542 5.55469 21.4777C5.4783 21.4204 5.4401 21.3549 5.4401 21.2812C5.4401 21.2158 5.46398 21.1605 5.51172 21.1155C5.55946 21.0705 5.62153 21.048 5.69792 21.048C5.73611 21.048 5.82205 21.0787 5.95573 21.1401C6.08941 21.2015 6.23503 21.269 6.39258 21.3426C6.55013 21.4163 6.648 21.4613 6.6862 21.4777C7.38325 21.7805 8.14475 22.0322 8.9707 22.2327C9.79666 22.4332 10.5486 22.5335 11.2266 22.5335C12.1337 22.5335 12.931 22.4741 13.6185 22.3555C14.306 22.2368 15.0556 22.0301 15.8672 21.7355C16.0104 21.6782 16.156 21.6148 16.304 21.5452C16.452 21.4756 16.6144 21.3979 16.791 21.3119C16.9677 21.226 17.1037 21.1585 17.1992 21.1094L16.5833 20.2132ZM23 6.96652V20.2132L11.9141 17.1931C11.7804 17.2422 9.99002 17.764 6.54297 18.7584C3.09592 19.7528 1.33898 20.25 1.27214 20.25C1.148 20.25 1.06207 20.1968 1.01432 20.0904C1.01432 20.0822 1.00955 20.0699 1 20.0536V6.8192C1.02865 6.74554 1.04774 6.70461 1.05729 6.69643C1.10503 6.64732 1.20052 6.60231 1.34375 6.56138C2.36545 6.26674 3.07682 6.06213 3.47786 5.94754V1.23326L11.4701 3.66406C11.4891 3.66406 12.2554 3.43899 13.7689 2.98884C15.2823 2.53869 16.791 2.09468 18.2949 1.65681C19.7988 1.21894 20.5699 1 20.6081 1C20.799 1 20.8945 1.08594 20.8945 1.25781V6.38951L23 6.96652Z" fill="#7C5CFF"/>
</svg>
