<svg width="24" height="24" viewBox="0 0 24 24" fill="none" xmlns="http://www.w3.org/2000/svg">
<path d="M11.9993 16.2996L8.29933 19.1246C8.116 19.2746 7.916 19.3456 7.69933 19.3376C7.48266 19.3296 7.291 19.2669 7.12433 19.1496C6.95766 19.0323 6.82866 18.8739 6.73733 18.6746C6.646 18.4753 6.64166 18.2586 6.72433 18.0246L8.14933 13.3996L4.52433 10.8246C4.32433 10.6913 4.19933 10.5163 4.14933 10.2996C4.09933 10.0829 4.10766 9.88295 4.17433 9.69961C4.241 9.51628 4.35766 9.35361 4.52433 9.21161C4.691 9.06961 4.891 8.99895 5.12433 8.99961H9.59933L11.0493 4.19961C11.1327 3.96628 11.262 3.78695 11.4373 3.66161C11.6127 3.53628 11.8 3.47395 11.9993 3.47461C12.1987 3.47528 12.3863 3.53795 12.5623 3.66261C12.7383 3.78728 12.8673 3.96628 12.9493 4.19961L14.3993 8.99961H18.8743C19.1077 8.99961 19.3077 9.07061 19.4743 9.21262C19.641 9.35462 19.7577 9.51695 19.8243 9.69961C19.891 9.88228 19.8993 10.0823 19.8493 10.2996C19.7993 10.5169 19.6743 10.6919 19.4743 10.8246L15.8493 13.3996L17.2743 18.0246C17.3577 18.2579 17.3537 18.4746 17.2623 18.6746C17.171 18.8746 17.0417 19.0329 16.8743 19.1496C16.707 19.2663 16.5153 19.3289 16.2993 19.3376C16.0833 19.3463 15.8833 19.2753 15.6993 19.1246L11.9993 16.2996Z" fill="#7C5CFF"/>
</svg>
